<?xml version="1.0" standalone="no"?>
<!DOCTYPE svg PUBLIC "-//W3C//DTD SVG 20010904//EN"
 "http://www.w3.org/TR/2001/REC-SVG-20010904/DTD/svg10.dtd">
<svg version="1.0" xmlns="http://www.w3.org/2000/svg"
 width="2220.000000pt" height="2220.000000pt" viewBox="0 0 2220.000000 2220.000000"
 preserveAspectRatio="xMidYMid meet">

<g transform="translate(0.000000,2220.000000) scale(0.100000,-0.100000)"
fill="#000000" stroke="none">
<path d="M10580 22059 c-241 -9 -517 -29 -685 -49 -44 -5 -105 -12 -135 -15
-162 -18 -336 -43 -527 -75 -32 -5 -74 -12 -93 -15 -19 -3 -57 -10 -85 -16
-27 -5 -72 -14 -100 -19 -27 -5 -84 -17 -125 -25 -41 -9 -96 -20 -121 -25 -47
-8 -153 -33 -221 -50 -93 -24 -117 -30 -173 -44 -33 -8 -94 -24 -135 -35 -41
-11 -104 -28 -140 -37 -36 -9 -69 -20 -74 -25 -6 -5 -22 -9 -37 -9 -15 0 -31
-4 -34 -10 -3 -5 -16 -10 -29 -10 -12 0 -26 -3 -30 -7 -4 -5 -11 -8 -14 -8 -8
0 -63 -17 -187 -57 -105 -34 -108 -35 -117 -37 -4 -1 -38 -13 -75 -27 -81 -29
-98 -36 -98 -34 0 1 -172 -62 -200 -75 -16 -7 -73 -29 -125 -50 -104 -40 -156
-62 -182 -76 -10 -5 -23 -9 -28 -9 -6 0 -41 -14 -78 -31 -37 -17 -76 -35 -87
-39 -44 -18 -163 -73 -221 -101 -33 -16 -66 -29 -72 -29 -7 0 -12 -4 -12 -10
0 -5 -6 -10 -14 -10 -13 0 -376 -178 -386 -189 -3 -3 -27 -17 -55 -30 -56 -27
-227 -122 -235 -131 -3 -3 -23 -14 -45 -26 -52 -27 -89 -48 -95 -54 -3 -3 -18
-12 -35 -20 -16 -8 -32 -17 -35 -20 -3 -3 -25 -16 -50 -29 -25 -14 -47 -27
-50 -30 -3 -3 -17 -12 -32 -20 -15 -8 -36 -22 -45 -31 -10 -9 -21 -16 -25 -16
-9 1 -365 -232 -383 -251 -8 -7 -18 -13 -24 -13 -6 0 -11 -4 -11 -10 0 -5 -7
-10 -15 -10 -8 0 -15 -4 -15 -10 0 -5 -7 -10 -15 -10 -8 0 -15 -4 -15 -10 0
-5 -5 -10 -10 -10 -6 0 -45 -26 -88 -57 -157 -116 -298 -222 -319 -242 -12
-12 -26 -21 -30 -21 -4 0 -26 -17 -48 -36 -81 -72 -95 -84 -101 -84 -3 0 -11
-6 -19 -12 -7 -7 -28 -25 -46 -40 -49 -39 -183 -151 -189 -158 -3 -3 -34 -30
-70 -60 -36 -30 -77 -67 -92 -82 -14 -16 -31 -28 -38 -28 -6 0 -8 -4 -5 -10 3
-5 2 -10 -4 -10 -28 0 -667 -631 -792 -782 -27 -33 -77 -91 -129 -148 -25 -27
-56 -64 -70 -80 -14 -17 -38 -46 -55 -64 -43 -47 -77 -88 -100 -121 -11 -15
-30 -38 -43 -51 -13 -13 -20 -24 -17 -24 3 0 -4 -11 -17 -24 -13 -14 -33 -37
-46 -53 -12 -15 -36 -44 -52 -63 -16 -19 -32 -43 -36 -52 -3 -10 -10 -18 -15
-18 -5 0 -9 -7 -9 -15 0 -8 -9 -19 -20 -25 -11 -6 -20 -17 -20 -25 0 -7 -3
-15 -8 -17 -13 -6 -252 -330 -252 -342 0 -4 -5 -12 -10 -19 -39 -46 -50 -61
-50 -68 0 -4 -6 -14 -13 -21 -15 -15 -43 -59 -47 -73 -2 -5 -8 -15 -14 -22
-28 -32 -34 -41 -30 -45 2 -3 -5 -13 -16 -23 -11 -10 -20 -22 -20 -27 0 -5 -9
-18 -20 -30 -11 -12 -20 -28 -20 -35 0 -7 -3 -13 -8 -13 -4 0 -13 -14 -20 -30
-8 -17 -19 -36 -26 -43 -16 -17 -137 -217 -130 -217 2 0 -4 -10 -16 -22 -11
-12 -20 -27 -20 -34 0 -7 -6 -19 -14 -27 -8 -7 -28 -40 -45 -73 -17 -32 -43
-79 -57 -104 -94 -158 -419 -810 -429 -860 -2 -8 -14 -37 -28 -65 -14 -27 -27
-57 -29 -65 -2 -8 -5 -17 -8 -20 -7 -6 -109 -252 -145 -350 -15 -41 -42 -113
-61 -160 -18 -47 -36 -98 -40 -115 -4 -16 -11 -35 -15 -41 -5 -6 -10 -19 -12
-30 -2 -10 -9 -30 -14 -44 -6 -14 -36 -106 -67 -205 -31 -99 -61 -194 -67
-212 -5 -18 -12 -40 -14 -50 -2 -10 -10 -38 -18 -63 -17 -49 -74 -260 -97
-360 -4 -19 -13 -50 -18 -68 -6 -18 -11 -35 -11 -37 -1 -8 -7 -36 -45 -205
-19 -85 -40 -184 -46 -220 -7 -36 -16 -87 -21 -115 -36 -183 -88 -524 -109
-705 -6 -52 -15 -129 -20 -170 -5 -41 -14 -133 -19 -205 -6 -71 -16 -200 -23
-285 -19 -245 -15 -1152 7 -1415 34 -415 46 -535 65 -670 5 -38 12 -90 15
-115 3 -25 10 -70 15 -100 5 -30 17 -102 25 -160 30 -198 101 -547 175 -855
23 -96 93 -355 110 -410 48 -150 90 -291 90 -298 0 -4 6 -20 13 -35 8 -15 17
-41 20 -58 12 -63 225 -636 297 -799 10 -22 48 -110 85 -195 37 -85 77 -175
90 -200 12 -25 64 -132 116 -237 51 -106 97 -193 101 -193 5 0 8 -9 8 -19 0
-11 3 -21 8 -23 4 -1 31 -50 61 -108 30 -58 77 -143 105 -190 27 -47 63 -110
80 -140 16 -30 33 -56 38 -58 4 -2 8 -8 8 -13 0 -21 337 -546 365 -569 8 -7
15 -19 15 -26 0 -8 4 -14 9 -14 5 0 13 -9 16 -20 3 -11 12 -26 18 -32 7 -7 32
-42 56 -78 65 -94 162 -222 184 -242 10 -9 18 -20 18 -25 0 -4 10 -20 22 -35
12 -14 29 -36 37 -49 8 -12 29 -38 45 -58 17 -21 41 -52 55 -70 14 -19 36 -46
50 -62 14 -15 36 -43 50 -60 61 -79 123 -149 131 -149 6 0 8 -4 5 -8 -2 -4 29
-43 70 -86 41 -43 74 -80 74 -81 0 -7 62 -74 137 -151 45 -45 80 -84 77 -86
-2 -3 29 -36 69 -74 39 -39 91 -90 113 -115 107 -114 515 -500 544 -513 11 -5
20 -13 20 -18 0 -4 3 -8 8 -8 4 0 7 73 7 163 0 271 14 495 34 557 10 30 24 78
31 105 7 28 25 99 41 160 16 60 29 122 29 137 0 15 9 50 20 78 11 28 20 66 20
85 0 32 30 141 66 245 9 25 21 68 28 96 12 55 30 84 53 84 7 0 42 -13 77 -29
34 -17 76 -33 92 -37 16 -4 58 -20 94 -36 151 -68 486 -72 745 -9 234 57 325
72 325 52 0 -6 -25 -51 -55 -100 -30 -49 -55 -93 -55 -98 0 -5 -13 -36 -29
-69 -16 -33 -34 -77 -40 -98 -5 -21 -18 -47 -27 -58 -11 -12 -19 -41 -22 -78
-2 -33 -8 -60 -12 -60 -12 0 -19 52 -10 74 4 12 1 41 -7 69 -12 41 -17 47 -41
47 -45 0 -69 -10 -81 -34 -8 -14 -33 -29 -66 -41 -51 -17 -56 -17 -80 -1 -14
9 -25 21 -25 27 0 5 -19 18 -43 28 -23 10 -56 30 -73 44 -17 14 -44 29 -60 33
-16 4 -78 31 -139 60 -146 70 -186 84 -273 95 -40 5 -82 14 -92 19 -10 6 -30
10 -44 10 -21 0 -26 -5 -26 -24 0 -26 8 -31 90 -52 59 -16 179 -67 220 -94 14
-10 39 -22 55 -27 17 -6 55 -27 85 -47 30 -20 59 -36 65 -36 27 0 105 -61 118
-92 23 -55 47 -69 91 -57 21 6 41 8 44 4 4 -4 6 -26 5 -49 -1 -37 2 -45 28
-60 28 -16 29 -20 29 -92 0 -72 -1 -75 -29 -92 -17 -9 -32 -25 -35 -34 -2 -11
-10 -16 -19 -12 -23 9 -45 -43 -39 -94 6 -57 -13 -102 -43 -102 -46 0 -52 -8
-49 -65 1 -29 7 -77 13 -107 11 -51 10 -65 -15 -201 -7 -34 23 -116 50 -140
12 -11 37 -27 56 -37 19 -10 50 -31 69 -47 l34 -29 4 -118 c2 -65 10 -144 17
-175 7 -31 11 -86 8 -124 -4 -61 -2 -71 23 -107 18 -26 25 -45 20 -59 -3 -12
1 -30 10 -44 8 -13 17 -46 19 -73 2 -27 11 -69 20 -93 9 -24 15 -50 12 -58 -3
-7 -1 -13 5 -13 6 0 8 -4 4 -9 -3 -5 -1 -12 5 -16 6 -4 8 -11 5 -16 -4 -5 -1
-9 5 -9 7 0 9 -8 5 -21 -5 -13 -3 -19 3 -15 5 3 12 -1 16 -9 3 -8 12 -15 21
-15 8 0 15 -5 15 -11 0 -5 4 -7 10 -4 5 3 10 2 10 -4 0 -5 10 -13 22 -17 12
-3 30 -15 41 -25 11 -10 24 -16 29 -13 4 3 8 0 8 -6 0 -6 4 -9 9 -6 5 3 12 -1
15 -10 4 -9 9 -14 12 -11 4 3 14 -2 25 -12 47 -44 691 -396 703 -384 3 4 6 1
6 -5 0 -7 9 -12 19 -12 11 0 21 -3 23 -8 2 -4 53 -31 113 -61 61 -29 137 -66
169 -82 32 -16 65 -29 72 -29 8 0 14 -4 14 -10 0 -5 8 -10 18 -10 10 0 22 -4
28 -8 8 -7 177 -82 229 -102 53 -20 102 -40 175 -73 144 -65 640 -240 925
-326 695 -209 1451 -354 2195 -420 342 -31 474 -36 970 -36 515 0 627 5 1020
41 1177 107 2357 414 3415 887 347 155 354 158 348 176 -4 12 -3 13 5 3 7 -11
26 -5 93 28 46 24 86 46 87 51 2 5 8 7 13 3 5 -3 10 5 10 18 1 17 2 19 6 5 4
-15 14 -12 86 26 45 25 93 50 106 57 13 7 19 15 14 19 -6 4 -7 28 -1 66 5 33
15 112 22 176 14 129 31 196 58 231 l18 23 1 -25 c2 -30 2 -18 -5 -120 -3 -47
-12 -103 -20 -125 -8 -22 -17 -70 -21 -107 -4 -38 -10 -68 -14 -68 -4 0 -7 -9
-7 -20 0 -26 3 -25 118 40 55 31 94 59 90 65 -3 5 -5 23 -3 40 5 59 43 230 57
256 7 14 19 52 27 85 8 32 24 94 35 136 12 43 30 144 41 225 11 82 25 164 30
183 5 19 13 64 16 100 4 36 15 83 25 105 10 22 23 56 29 75 6 19 29 60 51 90
22 30 49 73 61 95 12 22 35 59 51 83 30 44 69 147 82 215 17 93 95 209 211
315 49 45 62 52 84 47 51 -13 63 -33 56 -97 -7 -55 -6 -60 20 -80 19 -14 23
-24 16 -31 -18 -18 -13 -46 13 -74 32 -34 44 -85 50 -218 3 -60 11 -128 17
-150 7 -25 9 -80 6 -148 -5 -99 -4 -109 14 -120 10 -6 19 -17 19 -24 0 -7 5
-13 10 -13 6 0 10 -13 10 -29 0 -28 -1 -28 -49 -23 -40 3 -54 0 -80 -19 -17
-12 -31 -29 -31 -37 0 -8 19 -35 41 -60 55 -62 70 -101 74 -186 2 -54 7 -72
21 -83 16 -12 20 -11 30 2 6 8 14 15 18 15 7 0 161 114 184 137 7 7 17 13 20
13 4 0 18 10 32 23 14 12 42 35 63 50 20 16 48 39 62 53 13 13 27 24 30 24 4
0 12 6 19 13 7 6 28 23 46 37 45 34 123 99 135 114 6 7 19 18 31 26 31 22 141
119 189 168 24 23 45 42 49 42 19 0 486 459 697 684 35 38 73 79 84 90 11 12
36 41 55 64 38 46 114 131 155 173 14 15 25 30 25 33 0 4 11 17 23 30 13 13
41 46 63 72 21 27 45 55 52 62 7 8 25 30 40 50 15 21 32 42 37 49 6 7 20 25
33 40 12 15 32 39 43 53 12 14 29 36 38 50 21 33 25 38 66 85 19 22 35 44 35
48 0 4 5 13 10 20 23 26 106 135 120 157 8 12 20 28 25 34 19 22 75 104 75
111 0 3 6 13 13 20 28 33 37 45 32 45 -3 0 -1 6 5 12 46 56 60 75 60 86 0 6 5
12 12 12 6 0 9 3 5 6 -3 4 -1 12 6 20 24 26 52 68 64 94 4 8 15 24 25 34 10
11 18 26 18 33 0 7 5 13 10 13 6 0 10 5 10 11 0 6 13 29 29 52 47 69 168 273
176 296 3 11 11 21 16 21 6 0 8 4 5 9 -4 5 -2 11 2 13 5 1 22 28 38 58 17 30
43 78 59 105 63 110 320 608 323 628 1 4 18 42 37 85 20 42 40 86 45 97 4 11
26 59 49 108 23 48 41 92 41 98 0 6 11 34 24 62 41 91 57 130 88 212 17 44 39
103 50 130 73 186 247 705 262 780 2 11 11 40 19 65 18 51 104 372 110 410 3
14 10 43 16 65 18 67 49 206 65 290 8 44 17 87 20 95 3 8 8 32 11 53 3 21 11
71 19 110 8 40 19 106 26 147 6 41 14 84 16 95 16 67 61 412 94 720 40 369 57
926 41 1380 -6 204 -14 404 -17 445 -9 144 -49 542 -65 650 -5 36 -14 99 -19
140 -12 95 -18 134 -30 190 -5 25 -11 63 -14 85 -22 153 -94 513 -143 715 -3
14 -7 32 -9 40 -1 8 -7 31 -13 50 -6 19 -17 62 -25 95 -59 241 -129 477 -232
785 -50 147 -72 210 -119 330 -7 19 -32 85 -55 145 -23 61 -47 116 -52 123 -6
6 -7 12 -2 12 4 0 3 5 -4 12 -7 7 -12 18 -12 25 0 7 -11 36 -24 65 -13 29 -45
103 -71 163 -91 212 -312 668 -326 673 -5 2 -9 10 -9 19 0 8 -8 27 -19 41 -10
15 -34 59 -54 98 -19 40 -53 103 -75 140 -21 38 -51 89 -64 114 -48 85 -72
125 -80 128 -4 2 -8 8 -8 13 0 14 -90 158 -279 449 -19 30 -41 61 -47 67 -7 7
-22 29 -35 50 -13 21 -29 44 -35 51 -7 6 -16 21 -19 32 -3 11 -11 20 -16 20
-5 0 -9 4 -9 10 0 5 -15 29 -32 53 -18 24 -41 54 -50 68 -87 121 -251 335
-300 391 -11 13 -28 34 -37 48 -9 14 -24 34 -34 45 -9 11 -64 76 -121 145 -56
69 -122 144 -144 168 -23 23 -42 44 -42 47 0 7 -43 55 -132 146 -43 44 -78 83
-78 87 0 9 -459 468 -514 514 -22 18 -65 58 -96 88 -32 30 -75 69 -97 87 -21
17 -59 52 -84 77 -26 25 -51 46 -58 46 -6 0 -11 4 -11 8 0 5 -11 15 -25 22
-13 7 -22 17 -19 22 3 4 -1 8 -8 8 -7 0 -19 9 -26 20 -7 11 -17 20 -23 20 -6
0 -24 14 -39 30 -15 17 -31 30 -34 30 -4 0 -17 10 -30 23 -29 27 -75 66 -110
91 -15 11 -39 30 -54 43 -41 35 -51 43 -57 43 -3 0 -13 8 -23 18 -11 9 -32 26
-47 37 -16 11 -34 26 -41 33 -7 6 -17 12 -23 12 -6 0 -11 4 -11 8 0 4 -13 16
-30 25 -16 10 -35 23 -42 30 -27 27 -125 97 -136 97 -5 0 -12 3 -14 8 -5 13
-85 72 -97 72 -6 0 -11 5 -11 10 0 6 -7 10 -15 10 -8 0 -15 5 -15 10 0 6 -4
10 -10 10 -5 0 -21 10 -36 23 -14 12 -26 20 -28 17 -1 -3 -12 5 -26 17 -13 13
-36 29 -52 35 -15 7 -28 16 -28 20 0 5 -7 8 -15 8 -8 0 -15 4 -15 8 0 9 -126
92 -141 92 -5 0 -9 5 -9 10 0 6 -7 10 -15 10 -8 0 -15 5 -15 10 0 6 -5 10 -11
10 -5 0 -40 20 -77 44 -37 24 -83 52 -102 63 -34 18 -94 54 -135 81 -11 6 -31
18 -45 24 -14 7 -27 15 -30 18 -5 5 -57 34 -130 72 -25 13 -47 25 -50 28 -19
19 -580 299 -747 372 -51 22 -105 47 -194 88 -37 16 -73 30 -81 30 -8 0 -18 4
-23 9 -6 4 -82 36 -170 71 -88 34 -173 68 -190 75 -16 7 -66 25 -110 39 -44
15 -88 31 -97 36 -10 6 -26 10 -36 10 -10 0 -22 4 -28 10 -5 5 -18 11 -29 13
-11 1 -24 5 -30 8 -5 3 -30 11 -55 18 -25 7 -54 17 -65 21 -41 17 -265 87
-301 94 -11 3 -39 11 -64 19 -25 8 -65 20 -90 26 -25 7 -58 16 -75 21 -16 5
-86 23 -155 40 -69 17 -138 35 -155 40 -16 4 -75 18 -130 30 -55 11 -118 25
-140 30 -22 4 -67 14 -100 20 -33 6 -78 15 -100 20 -188 40 -611 105 -850 130
-168 18 -190 20 -300 30 -190 17 -244 20 -500 30 -279 10 -622 10 -915 -1z
m1840 -1473 c0 -14 -20 -36 -32 -36 -4 0 -8 13 -8 29 0 24 3 28 20 24 11 -3
20 -11 20 -17z m490 -254 c-25 -4 -35 2 -26 17 5 7 13 7 27 -2 20 -12 20 -12
-1 -15z m-2525 -1892 c33 -10 109 -21 169 -25 59 -4 122 -12 140 -17 30 -10
78 -16 276 -37 91 -9 181 -31 204 -50 6 -4 27 -14 47 -20 20 -6 53 -20 74 -31
22 -11 47 -20 56 -20 9 0 37 -12 63 -26 25 -14 72 -29 103 -34 32 -5 83 -14
113 -19 30 -6 105 -18 165 -26 114 -17 170 -32 265 -70 30 -12 77 -26 105 -30
27 -4 63 -14 80 -22 16 -9 64 -20 105 -24 41 -5 84 -10 95 -12 30 -6 55 11 71
50 19 45 8 59 -54 68 -94 14 -201 80 -174 107 9 9 24 8 65 -5 28 -9 108 -31
177 -47 69 -17 166 -48 215 -69 50 -21 113 -43 142 -49 28 -6 68 -21 87 -32
40 -22 186 -66 289 -86 37 -7 81 -22 96 -34 16 -11 58 -29 94 -40 52 -16 76
-31 119 -74 30 -30 84 -69 123 -89 49 -25 74 -44 82 -64 7 -16 28 -45 46 -66
85 -92 117 -144 136 -218 10 -41 19 -81 20 -89 1 -8 4 -46 7 -83 l6 -68 -33
20 c-19 11 -52 38 -73 60 -24 25 -53 43 -73 47 -18 3 -36 10 -39 15 -2 5 -24
18 -47 29 -23 11 -55 29 -72 40 -36 24 -72 40 -89 40 -7 0 -27 11 -46 25 -19
14 -44 25 -57 25 -13 0 -23 4 -23 8 0 4 -26 20 -58 35 -54 26 -61 27 -127 17
-39 -5 -95 -10 -126 -10 -71 0 -209 -28 -374 -75 -44 -13 -98 -26 -120 -30
-52 -9 -142 -64 -220 -134 -52 -47 -77 -61 -158 -88 -52 -18 -109 -33 -125
-33 -48 0 -140 -27 -169 -50 -14 -11 -33 -20 -42 -20 -9 0 -43 -13 -76 -30
-33 -16 -92 -37 -132 -46 -40 -9 -84 -25 -97 -35 -13 -11 -38 -22 -55 -25 -44
-9 -48 13 -17 82 14 31 26 62 26 69 0 22 -72 117 -140 185 -51 51 -81 71 -135
93 -233 93 -341 120 -555 138 -323 28 -342 27 -442 -20 -46 -21 -98 -43 -117
-50 -36 -12 -148 -85 -169 -110 -7 -9 -23 -36 -34 -61 -12 -25 -37 -64 -56
-88 -38 -47 -82 -133 -82 -162 0 -10 -16 -49 -36 -86 -20 -38 -44 -85 -54
-105 -10 -19 -26 -41 -34 -49 -9 -7 -16 -17 -16 -22 0 -6 -11 -23 -25 -40 -32
-38 -35 -93 -4 -101 34 -9 67 10 82 45 8 18 31 58 51 88 20 30 36 58 36 61 0
8 85 156 121 211 13 20 37 44 54 54 16 9 41 27 55 39 14 13 44 26 68 30 26 4
52 17 65 31 16 17 42 28 83 36 58 10 64 10 117 -17 52 -25 56 -30 53 -57 -6
-55 13 -62 151 -54 l123 6 0 -24 c0 -18 -8 -27 -32 -35 -18 -6 -43 -21 -56
-34 -17 -16 -36 -22 -68 -22 -39 0 -49 5 -82 41 -35 37 -62 47 -62 22 0 -11
-40 -47 -53 -48 -16 0 -152 -132 -269 -260 -55 -60 -57 -64 -43 -89 7 -15 17
-45 20 -66 11 -58 32 -94 58 -99 136 -25 143 -25 182 -14 22 6 42 13 44 15 2
2 8 28 12 59 11 84 38 104 89 65 l24 -19 -16 -49 c-10 -26 -20 -65 -24 -85 -5
-34 -4 -38 20 -44 14 -3 46 1 73 10 71 24 136 18 220 -20 17 -8 36 -14 42 -14
14 0 14 1 -9 -45 -17 -32 -18 -42 -7 -52 20 -20 76 -24 116 -7 40 17 112 10
148 -13 12 -8 29 -33 38 -56 l17 -42 19 24 c19 23 23 24 54 12 50 -18 99 5
115 54 17 52 4 62 -54 43 -56 -18 -64 -12 -73 59 -5 45 -3 53 20 74 14 13 37
45 50 71 14 26 49 79 77 118 50 66 54 70 74 57 12 -8 27 -32 34 -53 19 -54 10
-184 -15 -227 -20 -33 -46 -108 -58 -165 -4 -18 -22 -50 -42 -70 -41 -44 -93
-130 -93 -154 0 -26 -53 -150 -72 -170 -9 -9 -26 -22 -38 -28 -11 -6 -23 -25
-27 -41 -7 -37 -35 -50 -93 -42 -26 4 -45 2 -49 -5 -11 -18 -120 -42 -187 -42
-34 0 -89 -8 -122 -18 -58 -19 -117 -19 -128 -1 -3 5 -18 9 -34 9 -15 0 -52
11 -82 25 -29 14 -60 25 -69 25 -9 0 -36 15 -60 33 -24 19 -78 57 -120 85 -41
28 -88 69 -104 91 -15 23 -45 51 -66 62 -29 17 -42 34 -61 81 -13 36 -42 80
-68 108 -25 27 -68 79 -97 117 -44 58 -60 71 -105 87 -29 10 -58 21 -64 23
-15 5 -44 -79 -37 -106 3 -10 18 -25 34 -32 17 -6 36 -21 44 -31 7 -11 47 -55
88 -97 41 -42 80 -87 87 -101 32 -61 141 -179 231 -249 175 -136 195 -149 265
-177 38 -16 81 -36 96 -46 15 -10 57 -30 95 -45 61 -24 80 -26 182 -25 96 2
123 6 180 29 36 14 77 34 91 43 42 29 65 32 84 11 16 -18 17 -27 8 -80 -15
-82 -1 -125 76 -245 18 -28 32 -57 32 -65 1 -24 20 -54 71 -109 l46 -50 74 5
c49 3 91 12 124 28 28 12 71 32 96 44 45 21 135 30 175 17 11 -3 30 -19 42
-35 l21 -28 -46 -49 -45 -49 -77 -1 c-80 -2 -111 -11 -149 -43 -39 -34 -20
-51 57 -48 61 2 70 -1 102 -27 73 -62 107 -63 179 -5 30 24 42 29 57 21 12 -7
37 -6 78 4 111 25 279 44 415 47 154 2 176 -5 211 -75 15 -30 33 -45 72 -64
29 -13 60 -24 70 -24 30 0 57 -19 57 -40 0 -17 -7 -20 -40 -20 -22 0 -48 4
-58 10 -9 5 -44 20 -77 32 -58 22 -70 23 -320 20 -173 -2 -275 -8 -305 -16
-32 -10 -101 -12 -240 -10 -187 4 -334 -7 -372 -27 -10 -5 -51 -14 -91 -19
-41 -5 -107 -20 -148 -34 -100 -33 -187 -42 -255 -26 -30 7 -54 17 -54 22 0 9
75 66 105 79 11 4 33 19 49 33 27 23 28 24 9 34 -12 7 -67 9 -137 7 l-118 -4
-30 -35 c-17 -20 -37 -36 -45 -36 -27 0 -103 -100 -103 -136 0 -10 15 -9 68 6
37 10 95 20 130 22 l63 4 -7 -30 c-11 -51 -32 -74 -74 -81 -30 -5 -43 -14 -59
-41 -12 -19 -21 -42 -21 -50 0 -8 -5 -14 -11 -14 -5 0 -9 -8 -8 -17 2 -10 -1
-28 -5 -40 -13 -40 2 -65 37 -61 25 2 33 8 35 26 2 13 -2 30 -9 38 -19 23 -4
28 79 26 94 -3 100 -5 184 -53 36 -22 74 -39 83 -39 9 0 29 -10 46 -22 16 -12
51 -25 77 -28 44 -5 47 -7 48 -35 3 -73 -5 -67 97 -62 50 2 108 11 129 20 53
22 154 30 228 17 36 -6 90 -15 121 -20 31 -4 71 -15 88 -24 30 -16 34 -16 69
3 50 27 129 42 159 30 14 -5 70 -8 126 -7 56 2 108 -1 115 -5 23 -15 12 -45
-25 -75 -56 -43 -77 -52 -127 -52 -38 0 -46 -3 -46 -18 0 -19 -54 -42 -97 -42
-10 0 -28 -6 -38 -14 -16 -11 -17 -18 -7 -57 9 -36 8 -46 -4 -60 -22 -24 -49
-29 -80 -13 -16 9 -58 14 -107 14 l-80 0 -54 -56 c-30 -32 -53 -66 -53 -78 0
-42 60 -95 135 -121 97 -34 107 -34 323 16 63 15 101 18 160 13 62 -5 85 -3
110 10 18 9 32 19 32 21 0 3 -16 11 -35 19 -44 19 -71 44 -84 79 -12 31 -7 47
14 47 13 0 47 13 113 43 12 6 22 16 22 22 0 28 85 87 185 126 33 13 74 35 91
49 17 14 39 30 48 35 10 6 24 35 32 64 16 62 20 66 80 75 57 7 123 38 150 68
29 33 74 126 74 152 0 13 -9 31 -20 41 -14 13 -20 31 -20 62 l0 44 56 -2 c35
-1 60 -8 68 -17 30 -38 84 -85 108 -94 15 -5 34 -21 43 -34 15 -23 15 -27 1
-49 -9 -14 -29 -31 -45 -40 -22 -11 -28 -20 -24 -35 5 -17 11 -20 33 -15 16 3
31 1 35 -4 11 -18 24 -12 40 18 9 19 11 32 5 36 -17 11 -11 37 10 42 25 7 33
34 22 76 -6 21 -6 40 0 51 5 9 8 33 6 54 -3 37 -3 37 -53 40 -31 2 -58 10 -70
21 -14 13 -26 16 -40 11 -11 -5 -23 -9 -27 -9 -15 -2 -49 45 -59 82 -8 30 -18
42 -43 52 -18 8 -48 31 -67 52 -31 36 -37 38 -93 39 -81 2 -176 13 -201 24
-11 4 -36 14 -55 21 -19 7 -42 18 -50 24 -8 7 -23 15 -32 18 -10 4 -18 10 -18
15 0 14 112 31 165 25 46 -4 53 -2 82 27 25 24 33 43 39 86 3 32 2 66 -4 82
-6 15 -14 47 -17 72 -4 25 -13 64 -21 88 -8 23 -14 60 -14 81 0 21 -9 64 -20
96 -11 32 -20 65 -20 74 0 9 -11 39 -25 66 -13 28 -25 60 -25 73 0 27 24 29
42 4 25 -35 120 -102 161 -114 23 -6 58 -22 77 -34 52 -33 332 -87 460 -89 41
-1 93 -5 116 -9 39 -8 42 -7 72 32 18 22 32 42 32 44 0 2 -21 2 -46 0 -25 -3
-64 1 -87 6 -23 6 -80 16 -127 23 -119 16 -241 43 -335 74 -92 31 -185 74
-185 86 0 5 -26 25 -57 45 -58 37 -104 71 -134 99 -14 14 -18 13 -33 -4 -15
-16 -22 -18 -42 -9 -13 6 -24 17 -24 25 0 7 -10 23 -22 35 -33 33 -69 115 -75
173 -3 28 -12 62 -19 77 -27 54 -10 100 24 66 8 -8 14 -4 22 18 20 56 31 70
71 87 48 21 49 21 49 2 0 -35 25 -66 62 -77 40 -12 47 -27 23 -52 -24 -23 -8
-44 60 -76 80 -38 99 -39 83 -5 -14 32 2 72 34 84 13 5 65 5 117 1 54 -5 105
-4 118 1 14 5 58 9 99 9 67 0 80 3 119 30 51 35 68 36 127 12 24 -10 61 -19
83 -21 48 -4 56 -14 48 -64 -5 -33 -4 -37 12 -30 13 4 16 3 11 -5 -5 -8 2 -12
23 -12 16 0 31 -4 33 -9 2 -4 13 -12 26 -15 21 -7 22 -4 22 39 0 54 4 56 92
58 l63 2 3 -43 c3 -34 -2 -51 -21 -75 -19 -25 -25 -50 -31 -114 -5 -69 -4 -83
8 -83 12 0 69 73 78 101 2 5 17 12 33 15 16 3 37 11 45 17 8 7 25 18 38 25 20
11 22 10 22 -13 0 -31 -36 -141 -56 -169 -22 -32 -19 -189 6 -262 27 -80 22
-197 -8 -200 -6 -1 -19 -2 -27 -3 -10 -1 -13 -9 -11 -23 3 -13 5 -26 5 -30 2
-19 21 -5 27 19 7 25 8 25 15 8 4 -11 8 -41 8 -67 1 -41 -2 -48 -19 -48 -32 0
-56 -52 -99 -215 -13 -49 -88 -135 -118 -135 -11 0 -35 -13 -52 -29 -26 -24
-31 -37 -31 -74 0 -34 -6 -53 -25 -75 -14 -17 -25 -40 -25 -52 0 -33 -18 -60
-36 -53 -9 3 -20 0 -25 -8 -12 -19 -11 -79 1 -79 18 0 32 -40 20 -55 -7 -9
-10 -33 -8 -57 3 -24 -1 -60 -9 -82 -7 -21 -13 -60 -13 -85 0 -34 -10 -67 -35
-117 -19 -38 -35 -74 -35 -80 0 -24 -67 -129 -114 -178 -15 -17 -44 -62 -62
-101 -19 -38 -47 -88 -63 -110 -17 -22 -42 -59 -58 -83 -15 -23 -48 -70 -73
-103 -25 -34 -54 -78 -66 -98 -11 -20 -29 -37 -40 -39 -10 -2 -44 -29 -75 -60
-83 -83 -91 -90 -122 -98 -18 -4 -79 -56 -155 -130 -70 -69 -134 -124 -144
-124 -11 0 -31 6 -46 14 -15 7 -49 17 -77 21 -27 4 -56 12 -63 17 -7 6 -16 8
-19 4 -4 -4 -1 -11 6 -15 11 -7 11 -17 0 -61 -16 -63 -34 -74 -104 -65 -44 5
-61 2 -95 -15 -37 -19 -57 -21 -188 -20 -275 3 -336 6 -382 22 -25 9 -84 28
-132 42 -47 15 -91 33 -98 40 -16 21 -105 39 -153 33 -36 -5 -57 2 -152 47
-60 30 -121 57 -135 61 -14 4 -38 18 -53 31 -16 13 -35 24 -43 24 -8 0 -14 4
-14 9 0 5 -13 14 -30 21 -16 7 -30 16 -30 20 0 4 -13 13 -29 20 -16 6 -32 18
-35 25 -2 7 -18 16 -35 20 -17 4 -31 10 -31 15 0 5 -11 15 -24 22 -13 7 -61
43 -107 80 -90 72 -431 419 -464 471 -10 18 -22 34 -25 37 -5 5 -78 115 -115
175 -11 17 -30 53 -43 80 -13 28 -43 91 -67 140 -24 50 -47 113 -50 140 -4 28
-22 95 -40 150 -62 190 -100 325 -120 435 -20 108 -42 214 -62 300 -19 83 -26
337 -27 940 0 317 0 326 22 367 22 42 22 45 10 195 -15 185 -14 356 2 446 15
82 59 218 100 309 17 37 43 102 57 143 14 41 43 111 64 155 21 44 41 94 45
110 12 50 40 98 83 140 23 21 41 45 41 52 0 48 169 306 227 346 68 48 147 53
268 17z m2830 -1146 c20 -8 71 -19 114 -23 l76 -8 -105 -3 c-58 -1 -147 -4
-197 -5 -99 -3 -120 7 -50 26 23 6 51 15 62 19 31 13 59 11 100 -6z m-2926
-13 c12 -7 7 -13 -22 -27 -21 -10 -46 -33 -57 -51 -10 -18 -42 -47 -70 -64
-32 -19 -50 -38 -50 -50 0 -22 -11 -24 -28 -7 -31 31 -1 79 100 160 59 48 96
59 127 39z m3203 -41 c13 0 82 -48 154 -109 6 -5 25 -12 42 -16 18 -3 34 -11
38 -16 3 -5 20 -15 37 -23 18 -7 67 -41 109 -74 43 -34 85 -62 93 -62 42 0 65
-176 33 -250 l-15 -35 -17 75 c-9 41 -27 93 -39 116 -23 41 -154 171 -195 193
-28 15 -58 38 -87 69 -12 12 -33 22 -46 23 -13 0 -46 13 -74 29 -27 17 -67 37
-87 46 -21 10 -38 24 -38 32 0 11 8 13 38 8 20 -3 45 -6 54 -6z m-567 -41 c15
-23 -88 -103 -147 -114 -69 -13 -56 33 24 84 67 42 109 53 123 30z m427 -160
c18 -12 34 -23 36 -24 1 -1 0 -9 -3 -17 -9 -22 -95 -36 -255 -43 -107 -5 -142
-11 -168 -26 -35 -20 -116 -26 -127 -9 -3 6 4 14 17 19 13 5 33 17 45 27 57
48 114 86 140 95 15 5 85 7 155 5 112 -3 130 -6 160 -27z m153 -54 c143 -51
146 -85 6 -65 -59 8 -111 37 -111 61 0 16 66 18 105 4z m-728 -101 c-3 -3 -12
-4 -19 -1 -8 3 -5 6 6 6 11 1 17 -2 13 -5z m-722 -38 c22 -13 55 -27 73 -31
29 -6 61 -40 49 -51 -11 -11 -65 -6 -112 10 -73 25 -147 14 -249 -38 -44 -22
-88 -46 -96 -51 -8 -6 -43 -19 -77 -30 -100 -34 -130 -7 -88 75 30 59 46 70
147 104 152 50 279 55 353 12z m-3223 -36 c76 -7 106 -16 166 -46 40 -20 85
-51 100 -68 15 -17 40 -38 56 -46 39 -20 75 -70 124 -172 l42 -87 0 -248 c1
-136 0 -264 -1 -283 -1 -19 -1 -55 1 -80 2 -25 2 -126 0 -225 -2 -172 -4 -181
-25 -203 -29 -29 -113 -72 -141 -72 -33 0 -118 31 -131 48 -11 14 -13 13 -14
-9 -5 -76 25 -165 71 -214 29 -31 40 -24 40 25 0 33 6 43 36 67 32 24 44 27
97 25 82 -4 89 -11 87 -96 -1 -39 1 -103 5 -143 10 -94 -3 -116 -82 -139 -62
-18 -122 -12 -235 23 -65 20 -92 43 -125 108 -22 43 -26 70 -34 190 -5 77 -20
205 -34 285 -14 80 -30 168 -35 195 -10 62 -46 193 -70 260 -25 70 -71 362
-73 459 0 45 3 158 7 251 6 165 7 171 32 193 14 12 29 20 34 17 4 -3 50 -9
102 -15z m4217 -19 c13 -24 5 -31 -36 -31 -37 0 -40 5 -16 32 21 23 40 23 52
-1z m179 -18 c13 -5 11 -8 -13 -13 -40 -8 -59 -2 -45 16 11 12 19 12 58 -3z
m1371 -120 c18 -42 41 -43 41 -3 0 17 5 30 10 30 6 0 10 -15 10 -34 0 -18 9
-45 20 -59 11 -13 26 -50 34 -80 8 -31 19 -65 25 -76 15 -27 14 -248 0 -257
-6 -3 -18 1 -27 10 -14 13 -18 44 -22 156 -5 137 -5 139 -34 169 -17 17 -40
31 -52 31 -24 0 -113 -39 -139 -60 -19 -15 -11 -49 17 -68 24 -17 48 -76 48
-118 0 -32 -2 -34 -25 -28 -31 8 -32 -4 -9 -125 16 -83 15 -202 -1 -243 -14
-36 -49 -20 -94 42 -24 33 -47 60 -50 60 -3 0 -23 16 -43 35 -38 34 -38 35
-38 112 0 82 19 133 76 209 23 30 23 31 6 47 -31 29 -74 21 -145 -27 -67 -45
-80 -46 -91 -10 -5 17 1 28 24 48 18 14 39 26 48 26 31 0 99 44 173 110 40 36
88 76 108 89 20 14 40 31 44 38 5 9 21 13 40 11 25 -2 35 -10 46 -35z m-4394
-14 c4 -5 4 -21 1 -35 -5 -19 -13 -24 -36 -24 -35 0 -43 11 -34 45 5 19 12 25
34 25 16 0 32 -5 35 -11z m799 -30 c60 -15 77 -47 52 -94 -22 -40 -56 -53 -73
-27 -7 9 -19 24 -27 32 -29 30 -33 100 -6 100 6 0 31 -5 54 -11z m928 0 c107
-23 118 -33 167 -166 24 -65 54 -136 67 -158 12 -22 34 -74 48 -116 14 -41 42
-109 63 -150 l38 -74 -3 -201 c-2 -173 -1 -203 13 -214 13 -11 20 -9 45 15 16
16 37 49 45 75 9 26 24 55 35 65 18 16 20 16 44 -9 14 -14 26 -32 26 -40 0 -8
8 -17 19 -21 32 -10 69 -76 80 -140 8 -55 3 -121 -15 -177 -7 -22 -37 -23 -68
-2 -13 8 -62 19 -108 24 -45 5 -103 16 -127 24 -52 19 -70 15 -114 -25 -36
-33 -82 -49 -145 -49 -23 0 -60 -9 -82 -20 -22 -11 -56 -20 -78 -20 -54 0
-210 43 -255 70 -34 20 -47 22 -130 18 -93 -5 -145 -21 -183 -56 -45 -41 -66
-51 -87 -40 -32 17 -66 60 -76 98 -12 43 -11 218 1 243 5 9 30 36 55 60 35 32
59 69 99 154 29 62 71 140 94 172 22 33 40 65 40 71 0 7 8 24 18 38 25 36 152
294 152 309 0 21 54 118 84 151 36 39 134 95 178 101 4 1 31 -4 60 -10z m768
-158 c0 -16 -10 -36 -24 -48 -14 -13 -27 -38 -31 -62 -10 -59 -20 -43 -20 31
0 50 5 70 23 96 19 26 27 31 38 21 8 -6 14 -24 14 -38z m-222 0 c13 -37 6 -67
-25 -109 -21 -28 -27 -31 -40 -20 -17 14 -13 100 7 137 16 31 46 26 58 -8z
m1466 -125 c6 -75 5 -111 -2 -118 -21 -21 -33 36 -21 93 7 33 8 54 2 58 -17
11 -33 49 -27 64 3 8 13 14 22 13 14 -2 19 -21 26 -110z m-1124 4 c10 -24 10
-33 0 -46 -21 -24 -42 4 -34 44 8 40 18 41 34 2z m1134 -318 c2 -4 1 -14 -4
-22 -7 -11 -12 -12 -21 -3 -6 6 -8 16 -5 22 8 13 23 14 30 3z m682 -196 c3
-12 1 -74 -5 -137 -9 -99 -14 -116 -33 -133 -23 -18 -23 -18 -35 10 -19 43 -7
157 24 227 28 62 39 70 49 33z m-308 -138 c-2 -30 -8 -53 -15 -56 -14 -4 -18
45 -7 86 11 41 25 23 22 -30z m257 -258 c17 -28 -2 -375 -25 -454 -12 -41 -72
-104 -105 -111 -11 -2 -66 -7 -122 -10 -97 -6 -102 -5 -113 16 -13 23 3 143
22 166 5 7 14 47 19 89 9 72 36 145 59 159 6 3 28 7 50 7 35 0 40 3 40 25 0
34 29 73 54 73 11 0 39 11 61 24 47 28 52 29 60 16z m-82 -664 c4 -9 -7 -22
-29 -35 -44 -26 -44 -26 -44 3 0 17 8 27 28 34 37 14 39 14 45 -2z m-5399 -21
c7 -20 -24 -20 -50 0 -18 14 -17 14 12 15 19 0 34 -6 38 -15z m4884 -108 c3
-51 1 -59 -17 -64 -16 -4 -21 -18 -29 -86 -9 -77 -10 -73 -6 57 2 76 7 142 10
148 3 5 13 8 22 6 13 -2 18 -17 20 -61z m-132 -129 c18 -13 0 -83 -32 -129
-30 -44 -31 -43 23 -75 17 -11 17 -13 -1 -60 -10 -27 -21 -60 -24 -73 -3 -13
-13 -32 -23 -42 -10 -10 -21 -35 -25 -56 -4 -21 -15 -48 -25 -61 -10 -13 -25
-49 -34 -80 -17 -58 -57 -127 -87 -150 -10 -7 -20 -29 -24 -50 -6 -36 -29 -72
-46 -72 -4 0 -17 9 -28 20 -44 44 -18 139 70 248 16 21 34 59 40 85 6 27 17
65 25 84 8 20 15 43 15 53 0 9 18 44 41 78 36 54 41 69 48 144 10 103 32 161
58 151 10 -3 23 -10 29 -15z m-1688 -12 c167 -15 240 -40 283 -94 42 -54 7
-151 -74 -199 l-52 -31 -155 4 c-85 2 -212 6 -281 7 -69 2 -131 7 -139 12 -7
4 -43 13 -79 20 -36 7 -90 22 -120 33 -42 15 -61 18 -87 10 -21 -5 -54 -5 -85
0 -57 11 -70 0 -50 -44 27 -61 6 -78 -67 -52 -32 12 -33 15 -28 48 3 19 15 42
27 51 27 20 20 61 -22 119 -28 39 -29 43 -15 65 15 23 70 44 171 66 57 12 591
2 773 -15z m418 -307 c14 -16 16 -23 6 -26 -7 -3 -19 -11 -26 -19 -18 -18 -22
-18 -30 1 -6 18 10 65 22 65 5 0 17 -10 28 -21z m902 -596 c2 -14 -4 -26 -17
-32 -11 -6 -23 -20 -26 -31 -4 -11 -11 -18 -16 -15 -12 8 -12 47 0 78 12 32
55 32 59 0z m-3378 -182 c21 -39 51 -84 82 -126 4 -5 30 -37 58 -69 27 -33 50
-63 50 -67 0 -4 12 -21 26 -36 15 -15 70 -82 122 -148 152 -190 290 -332 452
-462 58 -47 144 -120 191 -164 48 -44 104 -91 124 -105 21 -14 45 -33 54 -43
9 -10 45 -42 81 -72 35 -30 76 -67 89 -82 28 -34 159 -127 176 -127 7 0 18 -7
25 -15 25 -30 149 -104 186 -111 66 -12 192 -83 227 -128 17 -23 51 -65 76
-93 44 -52 45 -53 97 -50 59 2 84 -15 122 -83 17 -32 22 -35 70 -37 42 -2 61
-9 98 -38 26 -19 53 -35 60 -35 14 0 136 -63 177 -92 15 -11 55 -33 87 -50 41
-20 70 -44 91 -73 32 -45 45 -48 107 -29 8 2 46 -15 85 -39 66 -39 185 -97
201 -97 11 0 128 -93 169 -134 l38 -39 62 7 c101 12 109 12 120 -5 10 -16 -16
-79 -85 -202 -33 -60 -282 -305 -393 -387 -55 -40 -106 -80 -112 -88 -31 -38
-318 -192 -358 -192 -14 0 -51 -8 -82 -19 -94 -30 -240 -63 -358 -78 -153 -21
-494 -28 -554 -13 -25 7 -77 18 -116 25 -104 19 -266 54 -275 60 -8 5 -70 19
-290 65 -47 10 -103 26 -125 35 -22 10 -49 21 -60 26 -84 33 -363 178 -402
209 -14 11 -30 20 -36 20 -10 0 -95 51 -127 77 -8 6 -44 35 -80 63 -36 28
-131 114 -211 190 -136 130 -172 172 -314 375 -47 66 -140 260 -149 310 -4 21
-14 51 -21 65 -8 15 -23 74 -34 134 l-21 107 25 142 c25 145 32 164 114 304
60 102 164 234 204 258 69 42 136 130 167 221 26 73 33 243 20 459 -22 370
-29 561 -24 579 5 16 10 13 38 -20 17 -20 42 -58 56 -83z m3376 -143 c-3 -13
-6 -27 -7 -33 -1 -12 -17 25 -18 43 -1 6 6 12 15 12 12 0 15 -6 10 -22z m-46
-354 c-8 -27 -8 -26 -9 16 0 32 2 40 9 29 5 -9 6 -28 0 -45z m-360 -653 c6
-13 17 -17 30 -14 33 9 70 -6 80 -31 5 -13 6 -49 3 -80 -5 -49 -9 -56 -27 -56
-17 0 -18 2 -6 10 11 7 11 10 2 10 -7 0 -20 17 -29 38 -8 20 -20 40 -26 44 -7
4 -31 -4 -54 -18 -41 -24 -42 -24 -52 -5 -9 15 -4 29 22 69 17 28 35 51 39 51
4 1 12 -8 18 -18z m-395 -231 c3 -5 -3 -10 -14 -10 -12 0 -21 5 -21 10 0 6 6
10 14 10 8 0 18 -4 21 -10z m-342 -83 l28 -12 -21 -22 c-23 -26 -38 -28 -74
-12 -75 35 -10 79 67 46z m851 -5 c9 -14 -9 -31 -23 -23 -7 5 -10 14 -7 20 8
13 23 14 30 3z m-771 -49 c-7 -2 -21 -2 -30 0 -10 3 -4 5 12 5 17 0 24 -2 18
-5z m547 -174 c0 -5 -7 -9 -15 -9 -8 0 -15 -5 -15 -12 0 -9 -3 -9 -11 -1 -18
18 -4 42 20 36 12 -3 21 -9 21 -14z m261 -6 c0 -10 2 -33 4 -52 2 -24 -5 -48
-26 -81 -16 -26 -29 -52 -29 -58 0 -28 -101 -45 -116 -21 -4 7 10 26 31 46 34
31 37 38 32 71 -4 20 -8 46 -9 57 -2 14 7 25 32 37 46 23 80 23 81 1z m459
-35 c0 -19 -2 -20 -10 -8 -13 19 -13 30 0 30 6 0 10 -10 10 -22z m-400 -100
c0 -9 4 -8 10 2 7 11 10 6 10 -21 0 -23 -8 -44 -22 -59 l-22 -24 -8 35 c-9 42
0 79 18 79 8 0 14 -6 14 -12z m26 -174 c3 -19 10 -37 15 -40 13 -8 11 -24 -3
-24 -16 1 -59 39 -76 68 -9 16 -10 28 -2 42 10 19 12 19 35 4 15 -9 27 -30 31
-50z m-248 32 c2 -9 1 -24 -2 -32 -5 -13 -9 -13 -31 3 -28 21 -32 33 -10 33 8
0 15 5 15 11 0 17 25 4 28 -15z m-258 -6 c0 -5 -7 -10 -15 -10 -8 0 -15 5 -15
10 0 6 7 10 15 10 8 0 15 -4 15 -10z m631 -116 c14 -8 16 -55 3 -71 -12 -17
-16 -15 -50 19 -45 47 -41 73 8 63 18 -4 36 -9 39 -11z m-41 -176 c0 -16 -3
-19 -11 -11 -6 6 -8 16 -5 22 11 17 16 13 16 -11z m376 -226 c-4 -3 -11 -1
-17 5 -8 8 -7 18 3 34 l13 24 3 -28 c2 -16 1 -31 -2 -35z m-886 -4112 c0 -18
103 -40 176 -37 42 1 77 -3 85 -10 20 -16 120 -53 145 -53 12 0 42 -11 68 -25
26 -14 60 -25 75 -25 16 0 39 -9 53 -19 13 -11 38 -23 54 -27 28 -7 178 -83
219 -111 11 -7 26 -13 33 -13 8 0 27 -11 44 -25 16 -14 35 -25 43 -25 7 0 15
-6 18 -14 3 -7 17 -16 32 -20 23 -6 64 -30 159 -92 16 -10 36 -24 45 -29 58
-36 359 -326 370 -357 2 -5 27 -45 56 -88 29 -44 56 -92 60 -109 3 -16 12 -35
20 -41 7 -6 16 -23 20 -37 3 -15 14 -37 24 -50 11 -12 22 -40 26 -60 4 -21 13
-50 21 -65 18 -34 18 -78 1 -78 -24 0 -57 49 -68 101 l-11 50 -26 -26 c-29
-29 -101 -65 -130 -65 -27 0 -48 51 -32 80 9 16 8 25 -1 38 -8 9 -15 19 -16
21 -2 3 -13 -5 -26 -16 -18 -17 -28 -19 -55 -11 -32 9 -33 9 -31 66 2 62 -17
136 -32 127 -5 -4 -9 -1 -9 4 0 6 7 11 15 11 16 0 19 9 9 34 -5 12 -10 13 -26
5 -16 -9 -26 -7 -49 10 -57 42 -95 16 -83 -59 6 -38 4 -42 -42 -85 -48 -45
-64 -54 -64 -35 0 6 -8 14 -17 17 -10 4 -39 28 -65 53 -27 26 -72 64 -101 86
-29 21 -67 56 -83 76 -16 20 -34 37 -41 38 -7 0 -29 16 -50 36 -21 20 -53 42
-71 50 -18 8 -61 27 -95 43 -34 15 -79 31 -101 34 -21 3 -47 15 -58 27 -20 21
-178 100 -200 100 -8 0 -31 10 -53 22 -40 21 -51 24 -180 53 -38 8 -78 19 -87
25 -10 5 -29 10 -43 10 -43 0 -116 41 -173 98 -48 48 -61 56 -101 60 -35 3
-50 0 -60 -12 -32 -38 -83 -10 -125 69 -32 62 -32 76 0 114 29 35 71 41 114
16 14 -8 47 -14 73 -15 44 0 48 -2 45 -22 -5 -34 29 -60 66 -52 17 3 36 10 41
14 10 8 25 12 124 30 29 5 56 12 59 15 3 3 7 29 8 58 2 28 6 62 9 75 8 25 -4
29 -34 10 -15 -9 -23 -9 -35 1 -29 24 -19 41 24 41 22 0 40 -4 40 -10z m-1241
-132 c7 -19 2 -30 -25 -61 -42 -46 -45 -89 -9 -141 29 -43 30 -59 9 -133 -18
-60 -14 -115 12 -164 20 -40 36 -36 64 12 22 40 22 45 11 124 -12 77 -11 86 7
127 28 59 100 133 133 135 22 1 29 -7 52 -60 32 -74 41 -117 60 -262 12 -92
12 -114 1 -137 -18 -34 -70 -53 -109 -38 -17 7 -55 8 -95 4 -46 -4 -70 -3 -74
5 -12 19 -36 12 -68 -19 -41 -41 -82 -41 -103 1 -15 28 -15 35 -1 77 20 58 20
85 0 124 l-16 32 -22 -50 c-12 -27 -32 -65 -44 -84 -12 -19 -22 -41 -22 -49 0
-8 -17 -36 -37 -63 -26 -33 -42 -46 -53 -42 -40 17 -64 15 -110 -10 -39 -21
-54 -25 -69 -16 -47 24 -139 5 -144 -32 -6 -38 -31 -78 -56 -86 -15 -5 -58
-39 -95 -76 -48 -47 -80 -69 -109 -77 -23 -6 -63 -17 -89 -25 -26 -8 -56 -14
-68 -14 -25 0 -60 54 -60 92 0 15 -4 38 -9 51 -8 19 -5 29 15 50 14 15 36 30
49 33 34 8 61 58 69 124 4 30 14 77 23 104 11 34 13 65 9 105 -5 44 -2 73 14
122 11 35 20 86 20 112 0 64 34 102 83 92 18 -4 40 -14 49 -22 9 -9 36 -18 60
-20 37 -4 49 -1 82 26 21 17 42 31 45 31 26 0 332 67 376 82 83 27 125 36 178
37 51 1 59 -2 66 -21z m130 -7 c20 -13 42 -80 29 -88 -6 -3 -15 1 -19 10 -5 8
-25 25 -44 37 -29 18 -33 25 -24 36 13 16 37 18 58 5z m416 -68 c10 -21 23
-72 28 -114 9 -69 8 -80 -8 -106 -15 -22 -20 -55 -25 -150 -5 -111 -8 -124
-29 -147 -30 -32 -73 -34 -101 -6 -23 23 -25 50 -6 105 10 30 11 62 4 130 -4
50 -9 137 -11 194 l-2 104 35 13 c19 7 49 13 66 13 27 1 34 -5 49 -36z m-2057
-112 c12 -11 22 -24 22 -29 0 -5 16 -33 35 -61 21 -31 38 -69 41 -95 9 -59 31
-64 71 -17 29 35 73 120 88 169 11 36 38 22 56 -28 8 -25 20 -56 26 -70 l11
-25 13 30 c7 17 26 49 43 73 l30 42 17 -69 c10 -38 25 -83 33 -100 22 -42 20
-96 -5 -130 -12 -16 -29 -53 -38 -82 -24 -73 -57 -91 -159 -87 -58 3 -77 7
-88 22 -9 13 -10 24 -4 37 18 32 11 76 -16 108 -14 17 -29 31 -34 31 -4 0 -13
-23 -20 -51 -10 -39 -10 -60 0 -94 11 -39 10 -48 -4 -70 -12 -18 -25 -25 -39
-23 -24 3 -24 7 -12 128 9 81 -4 120 -40 120 -14 0 -30 -9 -37 -20 -7 -11 -16
-20 -19 -20 -16 0 -27 64 -28 160 -1 57 -4 112 -7 123 -6 19 11 47 30 47 6 -1
21 -9 34 -19z m-227 -1 c42 -23 74 -180 50 -251 -10 -33 -15 -35 -89 -53 -154
-37 -192 7 -142 164 11 34 20 72 20 84 0 28 19 53 45 59 37 9 96 7 116 -3z
m2578 -102 c-24 -9 -45 3 -35 21 5 7 15 7 32 -1 l26 -12 -23 -8z m-2132 -554
c7 -19 -14 -82 -33 -102 -13 -13 -18 -39 -15 -72 2 -15 28 -70 56 -120 20 -35
3 -49 -70 -56 -81 -7 -92 -19 -25 -25 19 -2 41 -7 48 -12 6 -5 29 -7 50 -3 34
5 40 3 55 -24 20 -34 16 -47 -38 -115 -50 -64 -85 -120 -85 -136 0 -15 -7 -29
-79 -163 -23 -44 -56 -116 -72 -160 -16 -45 -36 -94 -44 -111 -36 -75 -88
-358 -105 -575 -6 -69 -15 -165 -20 -215 -20 -186 -22 -243 -11 -366 15 -177
59 -474 78 -523 8 -23 21 -63 29 -90 7 -27 20 -59 28 -71 8 -13 18 -47 22 -76
4 -30 15 -70 26 -90 10 -19 23 -61 28 -92 9 -48 8 -66 -9 -119 -43 -134 -54
-164 -72 -204 -36 -77 -16 -169 29 -132 42 35 102 44 102 14 0 -16 57 -59 98
-73 20 -6 39 -18 44 -27 4 -8 29 -27 56 -44 27 -17 54 -43 64 -63 9 -19 35
-74 58 -122 23 -48 47 -90 54 -93 23 -9 28 -63 10 -100 -17 -36 -48 -59 -64
-49 -6 3 -10 1 -10 -5 0 -8 -9 -10 -24 -6 -16 4 -26 1 -30 -9 -11 -29 -45 -14
-110 49 -73 70 -84 104 -45 135 19 15 20 21 10 40 l-12 22 -24 -25 c-41 -45
-58 -36 -160 79 -25 28 -45 55 -45 61 0 5 -10 24 -22 41 -13 17 -30 41 -38 54
-18 28 -46 57 -80 84 -14 11 -38 40 -55 65 -16 25 -46 64 -67 87 -21 24 -38
48 -38 54 0 6 -12 25 -27 43 -25 30 -163 306 -202 403 -10 26 -33 76 -50 109
-17 34 -31 66 -31 72 0 5 -13 43 -30 83 -16 41 -30 82 -30 91 0 9 -11 52 -25
95 -28 91 -60 389 -59 553 1 146 22 587 33 695 5 50 16 104 25 120 9 17 16 46
16 65 1 43 10 80 50 195 27 78 33 110 40 237 6 118 11 153 27 180 16 27 25 32
48 30 35 -4 92 48 173 158 63 87 261 287 319 323 50 31 107 45 201 46 58 1 74
-2 79 -15z m5619 -431 c34 -18 106 -49 160 -67 55 -19 133 -48 174 -65 41 -17
80 -31 85 -31 6 0 37 -14 70 -30 33 -17 65 -30 71 -30 6 0 24 -6 40 -14 108
-52 254 -106 289 -106 11 0 26 -5 32 -11 10 -10 59 -26 203 -66 62 -17 90 -37
90 -65 0 -35 -31 -155 -44 -174 -13 -17 -15 -16 -29 19 -9 20 -19 37 -22 37
-3 0 -16 -10 -29 -22 -29 -29 -38 -64 -20 -79 23 -19 17 -81 -11 -108 -24 -22
-26 -22 -48 -7 -12 9 -32 23 -44 32 -29 20 -113 29 -155 15 -47 -15 -159 -17
-186 -2 -12 6 -29 28 -38 49 l-15 37 -20 -24 c-10 -12 -16 -27 -13 -33 3 -5 3
-20 0 -32 -5 -22 -9 -23 -53 -15 -47 9 -62 2 -63 -29 0 -7 -19 -37 -42 -66
-46 -58 -88 -82 -117 -66 -10 5 -49 11 -87 14 -82 5 -136 -14 -171 -61 -24
-33 -57 -47 -71 -29 -5 6 -12 31 -16 56 -11 69 -21 75 -69 40 -23 -17 -49 -30
-58 -30 -34 0 -49 -39 -49 -125 0 -44 -7 -132 -16 -195 -12 -91 -15 -162 -10
-335 12 -423 11 -648 -2 -765 -8 -63 -13 -205 -13 -315 1 -190 -7 -351 -16
-342 -2 2 -6 101 -9 218 -3 118 -9 237 -14 264 -24 128 -29 277 -30 756 0 393
3 543 14 625 8 60 17 170 21 244 14 306 25 428 44 502 11 43 24 86 29 95 5 10
21 61 36 113 27 98 47 167 66 231 11 36 12 37 53 31 23 -3 70 -20 103 -39z
m-1585 -117 c26 16 48 14 54 -6 8 -24 1 -36 -23 -42 -33 -9 -62 9 -62 39 0 20
3 24 9 14 6 -8 14 -10 22 -5z m-8626 -711 c-35 -13 -42 -12 -55 0 -13 13 -8
15 40 15 l55 -1 -40 -14z m-145 -22 c-1 -18 -18 -35 -24 -24 -4 6 -4 16 -1 21
7 12 25 13 25 3z m-580 -687 c0 -11 -19 -15 -25 -6 -3 5 1 10 9 10 9 0 16 -2
16 -4z m11965 -123 c-4 -10 -12 -36 -18 -58 -5 -22 -16 -47 -23 -55 -7 -8 -17
-35 -23 -59 -5 -25 -17 -48 -25 -53 -9 -5 -16 -15 -16 -23 0 -8 -8 -19 -18
-24 -11 -6 -30 -44 -46 -93 -16 -46 -37 -94 -47 -107 -11 -13 -19 -31 -19 -39
0 -20 -42 -128 -85 -220 -19 -39 -35 -75 -35 -78 0 -3 -8 -24 -19 -47 -54
-122 -63 -147 -68 -207 -3 -38 -12 -76 -22 -90 -10 -14 -21 -42 -25 -62 -4
-21 -11 -38 -15 -38 -13 0 -22 30 -14 43 4 7 10 48 14 92 8 111 48 271 93 375
14 30 37 94 52 142 23 75 32 90 63 110 34 22 43 39 56 99 2 15 21 46 40 69 19
23 35 47 35 54 0 6 9 19 20 29 11 9 20 23 20 31 0 7 7 19 15 26 7 6 17 31 21
55 3 25 12 49 19 55 8 6 17 26 21 43 9 43 12 47 36 47 15 0 18 -4 13 -17z
m-5504 -155 c-5 -14 -36 -53 -67 -87 -42 -44 -65 -61 -84 -61 -37 0 -52 13
-46 41 4 13 8 41 10 63 6 49 10 52 36 26 25 -25 54 -20 86 13 48 50 83 53 65
5z m-531 -402 c0 -13 -9 -35 -20 -49 -11 -14 -20 -32 -20 -41 0 -9 -4 -16 -10
-16 -5 0 -10 -11 -10 -25 0 -26 -36 -75 -54 -75 -6 0 -26 9 -44 20 l-32 20 40
57 c22 32 40 63 40 69 0 15 71 64 92 64 12 0 18 -8 18 -24z m-246 -37 c-7 -11
-34 -12 -34 -1 0 14 11 21 26 15 8 -3 11 -9 8 -14z m-34 -85 c11 -25 20 -52
20 -59 0 -24 -93 -105 -120 -105 -15 0 -20 3 -13 8 6 4 15 32 19 62 6 51 48
139 67 140 4 0 17 -21 27 -46z m5197 -231 c-4 -49 -6 -97 -7 -107 0 -14 -3
-17 -10 -10 -13 13 -1 204 13 204 6 0 7 -34 4 -87z m-1590 -188 c-11 -7 -25
-11 -33 -8 -22 8 -6 23 24 23 25 -1 26 -2 9 -15z m209 -90 c13 -20 14 -31 5
-56 -6 -18 -11 -49 -11 -70 0 -37 -23 -74 -40 -64 -5 3 -11 1 -15 -5 -11 -17
-63 27 -70 60 -8 36 -14 40 -43 29 -17 -6 -22 -14 -17 -28 9 -28 73 -93 85
-86 5 3 10 -3 10 -14 0 -23 -25 -29 -33 -8 -4 8 -8 9 -14 1 -4 -6 -20 -14 -35
-17 -57 -14 -100 -126 -64 -166 24 -26 12 -61 -29 -90 -19 -13 -35 -27 -35
-32 0 -23 -20 -5 -30 26 -8 23 -19 37 -35 41 -43 11 -53 -11 -39 -85 l7 -32
19 21 c38 40 59 21 38 -35 -9 -23 -14 -26 -40 -20 -18 4 -30 2 -30 -3 0 -6
-11 -23 -24 -39 -13 -16 -27 -45 -31 -65 -4 -20 -16 -44 -26 -54 -10 -9 -19
-23 -19 -31 0 -7 -9 -13 -20 -13 -13 0 -20 -7 -20 -20 0 -11 -7 -23 -16 -27
-9 -3 -31 -21 -49 -39 -24 -23 -40 -31 -56 -28 -13 2 -18 2 -11 -2 20 -9 14
-49 -12 -73 -13 -12 -42 -32 -64 -44 -23 -12 -78 -58 -124 -103 -83 -80 -138
-124 -156 -124 -5 0 -25 16 -45 35 -42 41 -69 44 -102 11 -13 -13 -37 -27 -54
-31 -16 -3 -37 -15 -47 -26 -11 -12 -30 -19 -54 -19 -50 0 -60 24 -20 45 17 9
30 20 30 25 0 5 8 11 18 15 9 3 45 32 79 64 34 32 83 71 110 86 45 26 136 97
176 137 10 10 21 18 25 18 10 0 95 84 167 165 59 66 117 144 143 191 7 13 17
24 23 24 5 0 9 5 9 11 0 6 12 26 28 44 15 18 36 45 47 59 11 15 25 32 31 39 6
7 17 25 25 40 15 28 95 122 166 195 23 24 49 54 58 68 9 14 28 30 43 37 15 7
40 26 57 44 19 20 42 33 65 36 19 2 38 5 42 5 4 1 15 -9 24 -23z m1388 -215
c4 -80 13 -163 20 -185 8 -22 23 -89 35 -150 12 -60 30 -153 41 -205 26 -123
35 -232 25 -306 -9 -70 -19 -54 -30 50 -4 38 -11 77 -16 85 -11 21 -46 188
-64 316 -9 55 -19 114 -24 130 -15 50 -21 113 -22 250 -1 142 9 230 21 185 4
-14 10 -90 14 -170z m589 49 c-5 -128 -42 -303 -69 -325 -7 -5 -16 -22 -19
-37 -10 -39 -28 -34 -20 6 4 17 11 34 15 37 4 3 10 50 14 105 4 55 14 113 22
129 8 16 14 37 14 46 0 31 22 81 34 77 6 -2 10 -19 9 -38z m-6172 -9 c15 -8
19 -21 19 -59 0 -48 -1 -48 -43 -65 -23 -9 -48 -16 -55 -16 -19 0 -14 55 8 83
11 14 20 29 20 34 0 9 20 33 28 33 2 0 12 -5 23 -10z m114 -150 c3 -5 1 -10
-4 -10 -6 0 -11 5 -11 10 0 6 2 10 4 10 3 0 8 -4 11 -10z m-4636 -167 c1 -58
-13 -71 -23 -22 -8 41 -8 83 1 106 6 16 8 15 14 -7 4 -14 7 -49 8 -77z m41
-146 c0 -24 -3 -28 -10 -17 -13 20 -13 63 0 55 6 -3 10 -21 10 -38z m9919
-134 c-1 -38 -1 -38 -9 -9 -8 27 -6 46 6 46 2 0 4 -17 3 -37z m-5092 -99 c-3
-3 -12 -4 -19 -1 -8 3 -5 6 6 6 11 1 17 -2 13 -5z m2673 -494 c0 -12 -28 -25
-36 -17 -9 9 6 27 22 27 8 0 14 -5 14 -10z m-60 -50 c0 -9 -52 -20 -63 -13 -4
3 -3 11 3 17 10 14 60 10 60 -4z m-280 -10 c-19 -13 -30 -13 -30 0 0 6 10 10
23 10 18 0 19 -2 7 -10z m-104 -42 c-27 -15 -118 -16 -123 0 -4 9 14 12 69 12
58 -1 69 -3 54 -12z m-336 -33 c0 -14 -34 -55 -45 -55 -19 0 -66 40 -60 51 6
9 105 13 105 4z m-900 -235 c25 -35 25 -61 0 -110 -15 -30 -26 -40 -45 -40
-36 0 -51 57 -36 132 11 51 14 55 37 50 13 -2 33 -17 44 -32z"/>
<path d="M12558 17966 c-37 -27 -11 -46 64 -46 47 0 58 17 27 41 -28 22 -67
24 -91 5z"/>
<path d="M12918 17829 c-26 -14 -17 -59 21 -107 33 -40 33 -40 53 -20 10 10
40 32 66 49 33 21 40 29 26 29 -12 0 -45 13 -75 30 -59 33 -66 34 -91 19z"/>
<path d="M13755 17481 c-6 -11 9 -23 19 -14 9 9 7 23 -3 23 -6 0 -12 -4 -16
-9z"/>
<path d="M9745 16495 c-26 -60 -31 -100 -15 -125 6 -9 10 -10 10 -3 0 6 9 15
20 18 46 15 67 117 30 150 -19 17 -20 16 -45 -40z"/>
<path d="M10986 15724 c-3 -9 -4 -20 0 -25 8 -13 44 9 44 26 0 20 -36 19 -44
-1z"/>
<path d="M13748 15624 c-29 -16 -68 -75 -68 -104 0 -17 2 -17 29 -4 32 16 81
81 81 107 0 20 -6 20 -42 1z"/>
<path d="M10519 15063 c-7 -21 -18 -47 -25 -58 -6 -11 -15 -44 -19 -72 -4 -29
-11 -55 -16 -59 -5 -3 -9 -16 -9 -29 l0 -24 25 23 c14 13 25 29 25 35 0 7 11
29 25 49 14 20 25 46 25 58 0 12 7 27 15 34 8 7 15 28 15 46 0 29 -3 34 -24
34 -19 0 -27 -8 -37 -37z"/>
<path d="M11225 14860 c-15 -17 -16 -24 -5 -50 14 -34 43 -45 94 -36 36 7 65
40 59 67 -9 40 -117 54 -148 19z"/>
<path d="M10387 14772 c-34 -37 -48 -107 -25 -130 8 -8 15 -9 25 -1 7 7 13 8
13 3 0 -13 49 89 50 103 0 13 -27 43 -39 43 -4 0 -15 -8 -24 -18z"/>
<path d="M11115 14750 c-3 -5 -1 -10 4 -10 6 0 11 5 11 10 0 6 -2 10 -4 10 -3
0 -8 -4 -11 -10z"/>
<path d="M13452 14685 c-35 -15 -33 -15 -62 -15 -16 0 -20 -7 -20 -38 0 -21 7
-47 15 -58 14 -19 15 -19 21 2 5 19 64 45 134 59 14 3 39 9 55 14 l30 8 -32 7
c-17 4 -34 14 -37 22 -7 18 -61 18 -104 -1z"/>
<path d="M11412 13964 c4 -44 34 -62 65 -38 17 13 16 15 -15 44 -43 39 -54 38
-50 -6z"/>
<path d="M11867 13955 c-20 -14 -21 -25 -5 -76 12 -43 22 -46 64 -24 20 10 23
15 12 15 -14 0 -18 8 -18 38 0 45 -25 67 -53 47z"/>
<path d="M11726 13908 c2 -72 21 -93 54 -63 14 13 15 22 6 55 -8 33 -14 40
-36 40 -22 0 -25 -4 -24 -32z"/>
<path d="M12908 13417 c-28 -23 -42 -73 -20 -71 6 1 19 2 27 3 8 0 22 15 31
32 13 26 14 34 2 45 -11 10 -18 9 -40 -9z"/>
<path d="M8725 16696 c-27 -27 -43 -92 -28 -115 11 -16 17 -16 84 -5 32 5 39
2 58 -24 33 -47 27 -82 -24 -150 -50 -66 -53 -77 -27 -87 12 -5 29 7 65 47 26
29 55 66 64 82 8 17 25 37 37 47 26 21 41 12 88 -52 114 -154 133 -210 80
-230 -20 -7 -26 -4 -44 27 -12 21 -27 34 -37 32 -13 -3 -15 -15 -13 -70 3 -57
0 -73 -22 -111 -14 -24 -26 -57 -26 -74 0 -18 -9 -38 -25 -53 l-24 -23 -7 44
c-7 40 -50 99 -74 99 -4 0 -10 -34 -14 -76 -6 -63 -3 -87 14 -142 28 -88 65
-122 131 -122 44 0 50 -3 93 -51 28 -32 52 -49 63 -47 10 2 37 37 60 78 l42
75 -44 41 c-49 44 -56 71 -26 98 19 17 20 17 37 -15 20 -39 52 -68 77 -69 23
0 22 26 -3 73 -22 41 -26 121 -10 205 8 47 6 60 -26 149 -61 169 -157 303
-218 303 -18 0 -54 15 -86 35 -30 19 -63 35 -74 35 -10 0 -34 16 -53 35 -40
41 -56 43 -88 11z m368 -870 c28 -36 26 -46 -9 -46 -27 0 -59 42 -50 65 9 24
32 17 59 -19z"/>
<path d="M12290 15460 c0 -23 13 -26 29 -6 9 11 8 15 -5 20 -23 9 -24 8 -24
-14z"/>
<path d="M14430 15241 c-5 -11 -10 -28 -10 -39 0 -10 -18 -35 -40 -54 -21 -20
-42 -48 -46 -63 -7 -28 9 -75 25 -75 17 0 61 73 61 102 0 15 8 33 18 40 25 19
52 64 52 88 0 27 -45 28 -60 1z"/>
<path d="M12960 6670 c0 -5 4 -10 9 -10 6 0 13 5 16 10 3 6 -1 10 -9 10 -9 0
-16 -4 -16 -10z"/>
<path d="M13090 6648 c0 -44 -13 -70 -39 -80 -40 -17 -51 -17 -51 -3 0 7 -15
15 -35 17 -34 4 -35 3 -35 -30 l0 -34 43 6 c42 6 42 5 63 -37 16 -32 32 -48
72 -67 28 -14 57 -31 64 -37 19 -20 65 -16 82 8 13 19 13 27 0 68 -8 25 -17
60 -21 77 -4 25 -11 33 -34 38 -22 4 -29 11 -29 28 0 26 -40 68 -64 68 -10 0
-16 -9 -16 -22z"/>
<path d="M13396 6444 c-3 -8 -10 -13 -15 -9 -5 3 -13 0 -16 -6 -4 -6 2 -13 14
-16 12 -3 21 -9 21 -14 0 -5 20 -28 45 -51 38 -36 45 -49 45 -80 0 -20 -4 -40
-10 -43 -31 -19 18 -50 75 -46 43 2 63 14 75 46 16 43 0 75 -55 106 -28 16
-58 41 -66 56 -31 60 -99 94 -113 57z"/>
<path d="M13926 6175 c-11 -30 39 -112 73 -118 65 -13 67 27 5 88 -49 47 -68
55 -78 30z"/>
<path d="M13667 6046 c-7 -18 1 -26 28 -26 13 0 28 -7 35 -15 7 -8 20 -15 29
-15 14 1 14 2 -1 11 -10 5 -18 16 -18 23 0 7 -11 18 -25 24 -33 15 -42 15 -48
-2z"/>
<path d="M13802 5989 c1 -13 8 -23 13 -21 15 3 12 35 -3 40 -9 3 -13 -3 -10
-19z"/>
<path d="M13922 5927 c-19 -21 -9 -34 32 -41 17 -3 40 -16 53 -30 20 -22 26
-23 52 -13 16 6 35 22 41 36 10 22 8 27 -12 42 -34 26 -144 30 -166 6z"/>
<path d="M14176 5925 c-6 -17 2 -45 14 -45 5 0 16 8 25 17 16 16 16 17 -1 30
-23 17 -31 16 -38 -2z"/>
<path d="M14595 5620 c-10 -4 -20 -18 -22 -32 -3 -20 2 -27 20 -30 13 -3 30
-2 39 1 14 5 14 9 -1 37 -13 23 -21 29 -36 24z"/>
<path d="M11475 6578 c-11 -6 -29 -19 -41 -30 -20 -17 -23 -18 -66 -2 -44 17
-45 17 -104 -10 -32 -15 -71 -38 -85 -52 l-26 -25 21 -42 c18 -35 21 -57 18
-136 -4 -121 2 -148 33 -154 21 -3 26 1 34 28 5 18 7 62 4 97 -6 81 6 112 55
137 22 11 42 27 45 35 10 24 50 23 72 -2 17 -20 24 -22 47 -13 15 6 35 23 44
38 10 15 23 33 29 38 6 6 15 22 19 38 5 23 2 30 -26 47 -38 23 -45 24 -73 8z"/>
<path d="M10970 6441 c-27 -7 -60 -61 -60 -99 0 -34 34 -21 90 35 43 42 44 45
26 59 -11 7 -22 14 -25 13 -3 -1 -17 -4 -31 -8z"/>
<path d="M10886 6225 c-20 -15 -33 -95 -22 -138 9 -36 45 -42 57 -11 13 36 11
127 -3 147 -11 14 -15 14 -32 2z"/>
<path d="M10851 5954 c-17 -14 -31 -30 -31 -35 0 -17 48 -29 75 -19 31 12 34
54 6 70 -16 8 -26 5 -50 -16z"/>
<path d="M10625 5879 c-4 -16 -10 -29 -14 -29 -4 0 -14 -16 -23 -35 -19 -42
-9 -60 40 -69 31 -5 34 -3 52 37 20 43 25 94 12 112 -4 6 -19 11 -34 11 -22 1
-28 -4 -33 -27z"/>
<path d="M10100 5410 c0 -5 9 -10 20 -10 11 0 20 5 20 10 0 6 -9 10 -20 10
-11 0 -20 -4 -20 -10z"/>
<path d="M9829 2434 c17 -37 51 -47 51 -15 0 21 -15 36 -46 43 -20 5 -20 4 -5
-28z"/>
<path d="M16003 5168 c-5 -7 -7 -24 -4 -38 6 -20 14 -26 45 -28 57 -5 69 2 54
30 -26 45 -74 63 -95 36z"/>
<path d="M16308 5074 c-14 -13 57 -104 81 -104 3 0 19 11 36 24 25 20 28 26
16 40 -7 9 -23 16 -35 16 -12 0 -31 7 -42 15 -20 15 -46 19 -56 9z"/>
<path d="M16287 4750 c-55 -21 -77 -37 -77 -56 0 -21 84 -102 113 -109 23 -6
28 -3 38 21 13 36 7 114 -12 141 -14 21 -15 21 -62 3z"/>
<path d="M5187 4318 c-24 -18 -34 -130 -13 -147 13 -11 20 -9 41 7 41 32 76
91 73 121 -3 23 -8 26 -43 29 -22 2 -48 -3 -58 -10z"/>
<path d="M17479 2193 c-13 -16 -12 -17 4 -4 16 13 21 21 13 21 -2 0 -10 -8
-17 -17z"/>
</g>
</svg>
